<?xml version="1.0" encoding="utf-8"?>
<!-- Generator: Adobe Illustrator 23.0.0, SVG Export Plug-In . SVG Version: 6.00 Build 0)  -->
<svg version="1.1" id="Layer_1" xmlns="http://www.w3.org/2000/svg" xmlns:xlink="http://www.w3.org/1999/xlink" x="0px" y="0px"
	 viewBox="0 0 150 150" style="enable-background:new 0 0 150 150;" xml:space="preserve">
<style type="text/css">
	.st0{fill-rule:evenodd;clip-rule:evenodd;fill:#414042;}
</style>
<g>
	<g>
		<path class="st0" d="M80.99,75.04l-0.66,6.28L80.99,75.04L80.99,75.04z M69.01,75.04l0.66,6.28L69.01,75.04L69.01,75.04z
			 M84.88,38.32c1.94-4.05,7.84-9.19,11.38-11.28c1.72-1.01,4.68-2.56,6.58-1.16c1.98,1.45,1.65,5.48,1.48,7.62
			c-0.41,5.2-0.82,10.41-1.15,15.62c-0.04,0.66-0.09,1.31-0.12,1.97l-1.65-0.78l0.08-1.3c0.33-5.22,0.74-10.43,1.15-15.64
			c0.1-1.3,0.43-5.22-0.8-6.12c-1.1-0.81-3.8,0.71-4.72,1.25c-3.4,2-9.63,7.43-10.98,11.16l-0.28,0.79l-0.79-0.27
			c-3.24-1.13-6.66-1.79-10.07-1.79c-3.4,0-6.82,0.66-10.07,1.79l-0.79,0.27l-0.28-0.79c-1.35-3.72-7.58-9.16-10.97-11.16
			c-0.93-0.55-3.62-2.06-4.72-1.25c-1.23,0.9-0.9,4.82-0.8,6.12c0.41,5.21,0.82,10.42,1.15,15.64l0.09,1.49l-1.65,0.77
			c-0.04-0.72-0.09-1.44-0.14-2.15c-0.33-5.21-0.74-10.41-1.15-15.62c-0.17-2.14-0.5-6.17,1.49-7.62c1.9-1.4,4.86,0.15,6.58,1.16
			c3.54,2.08,9.44,7.23,11.39,11.28c3.2-1.04,6.55-1.63,9.88-1.64C78.33,36.69,81.67,37.28,84.88,38.32L84.88,38.32z M102.82,55.3
			c-0.06,1.08-0.1,2.15-0.14,3.23c-0.26,7.49-2.44,15.41-11.52,16.24c-2.35,0.21-4.59-0.44-6.08-2.36c-1.23-1.6-1.65-3.73-1.45-5.71
			c0.23-2.26,1.28-4.6,3.21-5.89c1.13-0.75,2.45-1.04,3.79-0.91c2.69,0.28,4.31,2.35,4.46,4.97c0.1,1.86-0.83,3.83-2.52,4.69
			c-1.38,0.7-2.85,0.48-4.11-0.25l0.86-1.56c0.75,0.45,1.6,0.64,2.43,0.22c1.07-0.55,1.61-1.85,1.55-3.01
			c-0.1-1.74-1.05-3.11-2.85-3.29c-0.94-0.1-1.84,0.1-2.63,0.62c-1.47,0.98-2.25,2.87-2.42,4.58c-0.15,1.52,0.14,3.21,1.09,4.45
			c1.1,1.43,2.77,1.83,4.5,1.67c7.66-0.7,9.76-7.73,9.97-14.13c0.02-0.73,0.06-1.46,0.09-2.19l-0.47-0.19
			c-18.16-6.79-23.95,11.66-20.11,25.57c0.14,0.24,0.22,0.52,0.24,0.82c0.18,0.59-0.21,1.33-0.54,1.86
			c-0.94,1.51-2.27,2.95-3.83,4.15c8.14,5.44,20.03-6.27,22.83-15.25l0.25-0.81l1.62,0.5l-0.25,0.81C97.57,84.54,84.11,96.72,75,90
			c-9.1,6.73-22.56-5.46-25.8-15.86l-0.25-0.81l1.62-0.5l0.25,0.81c2.79,8.98,14.69,20.69,22.83,15.25
			c-1.55-1.21-2.89-2.64-3.83-4.15c-0.33-0.53-0.72-1.28-0.54-1.86c0.02-0.3,0.1-0.58,0.23-0.82c3.85-13.91-1.94-32.36-20.11-25.57
			l-0.46,0.19c0.03,0.73,0.06,1.46,0.09,2.19c0.2,6.41,2.3,13.43,9.97,14.13c1.73,0.16,3.4-0.24,4.5-1.67
			c0.95-1.24,1.24-2.93,1.09-4.45c-0.17-1.71-0.94-3.6-2.42-4.58c-0.78-0.52-1.69-0.72-2.62-0.62c-1.81,0.18-2.76,1.55-2.85,3.29
			c-0.06,1.16,0.48,2.46,1.55,3.01c0.78,0.4,1.58,0.25,2.29-0.14l0.87,1.56c-1.23,0.68-2.65,0.86-3.98,0.18
			c-1.7-0.87-2.62-2.83-2.52-4.69c0.14-2.62,1.76-4.7,4.45-4.97c1.34-0.14,2.67,0.16,3.79,0.91c1.94,1.29,2.99,3.63,3.21,5.89
			c0.2,1.98-0.22,4.11-1.45,5.71c-1.48,1.92-3.72,2.58-6.07,2.36c-9.08-0.83-11.26-8.75-11.52-16.24c-0.04-1.03-0.08-2.07-0.13-3.1
			l1.66-0.57v0.01c0.1-0.04,0.2-0.08,0.31-0.12l2.35-0.8C68.49,49.05,74.95,66.84,71.56,81c1.13-0.08,2.29-0.09,3.44-0.07
			c1.15-0.02,2.31-0.01,3.45,0.07c-3.57-14.87,3.74-33.76,22.7-26.12l0.01-0.15L102.82,55.3L102.82,55.3z M75,87.79
			c1.53-1.14,2.85-2.52,3.75-3.95c0.43-0.69,0.51-1.09-0.38-1.15c-1.1-0.07-2.24-0.09-3.37-0.07c-1.12-0.02-2.26-0.01-3.36,0.07
			c-0.89,0.06-0.81,0.47-0.39,1.15C72.14,85.27,73.47,86.65,75,87.79z"/>
	</g>
	<path class="st0" d="M16.74,120.56l-8.36,0.03l-0.88,3.2l-0.09,0c-0.31-0.01-0.62-0.01-0.92-0.01c-0.2,0-0.41,0-0.61,0H5.71
		l0.05-0.15c0.22-0.76,0.45-1.52,0.68-2.28c0.34-1.1,0.68-2.21,1.02-3.31c0.4-1.27,0.8-2.54,1.2-3.8c1.04-3.3,2.07-6.6,3.11-9.89
		l0.03-0.08h1.76l6.01,19.55h-1.95L16.74,120.56L16.74,120.56z M31.26,107.75v16.04H29.5v-19.55h1.88l8.53,17.26v-17.26h1.76v19.55
		h-2L31.26,107.75L31.26,107.75z M54.18,104.25h1.76v19.55h-1.76V104.25L54.18,104.25z M81.01,107.72l-5.09,12.68h-1.13l-4.7-11.62
		v15.02h-1.76v-19.55h1.76v0.14l0.03,0.09c0.14,0.4,0.28,0.8,0.43,1.2c0.2,0.57,0.43,1.13,0.65,1.69c0.27,0.65,0.53,1.31,0.79,1.96
		c0.27,0.69,0.55,1.38,0.83,2.06c0.71,1.72,1.41,3.44,2.12,5.15l0.55,1.33l5.46-13.62h1.82v19.55h-1.76V107.72L81.01,107.72z
		 M103.74,120.56l-8.37,0.03l-0.88,3.2l-0.09,0c-0.31-0.01-0.61-0.01-0.92-0.01c-0.2,0-0.41,0-0.61,0h-0.16l0.04-0.15
		c0.23-0.76,0.46-1.52,0.69-2.28c0.33-1.1,0.67-2.21,1.02-3.31c0.4-1.27,0.81-2.54,1.2-3.8c1.04-3.3,2.07-6.6,3.11-9.89l0.02-0.08
		h1.76l6.01,19.55h-1.95L103.74,120.56L103.74,120.56z M118.23,122.37h6.42v1.43h-8.19v-19.55h1.76V122.37L118.23,122.37z
		 M138.98,103.73c0.66,0.06,1.34,0.18,1.95,0.43c0.48,0.19,0.95,0.44,1.35,0.78c0.33,0.27,0.62,0.59,0.84,0.95
		c0.19,0.32,0.37,0.66,0.49,1.01c0.09,0.26,0.16,0.53,0.18,0.8c0,0.02,0,0.03,0.01,0.05v0.09l-1.3,0.51l-0.02-0.14
		c-0.09-0.4-0.24-0.79-0.44-1.15c-0.29-0.54-0.73-0.98-1.21-1.33c-0.65-0.47-1.49-0.67-2.27-0.73c-0.78-0.06-1.61,0-2.31,0.38
		c-0.55,0.3-1.03,0.69-1.39,1.2c-0.31,0.45-0.54,0.94-0.66,1.48c-0.09,0.4-0.15,0.84-0.1,1.26c0.04,0.49,0.2,0.94,0.5,1.33
		c0.28,0.38,0.63,0.69,1,0.97c0.42,0.3,0.86,0.55,1.33,0.76c0.47,0.22,0.96,0.45,1.44,0.66l0.01,0.01c0.73,0.3,1.44,0.64,2.13,1
		c0.65,0.34,1.25,0.75,1.8,1.24c0.53,0.48,0.97,1.04,1.31,1.66c0.38,0.69,0.57,1.47,0.66,2.25l0.01,0.01l-0.01,0.01
		c-0.04,0.83-0.2,1.66-0.56,2.42c-0.31,0.66-0.75,1.23-1.31,1.69c-0.6,0.48-1.29,0.8-2.02,1c-0.87,0.25-1.78,0.34-2.69,0.34
		c-0.83-0.02-1.64-0.16-2.4-0.48c-0.65-0.28-1.28-0.65-1.8-1.14c-0.43-0.41-0.79-0.89-1.01-1.44c-0.12-0.29-0.19-0.59-0.2-0.91v-0.1
		l1.29-0.3l0.04,0.1c0.07,0.21,0.18,0.4,0.3,0.58c0.33,0.48,0.76,0.88,1.23,1.22c0.52,0.37,1.08,0.66,1.69,0.87
		c0.62,0.22,1.28,0.3,1.94,0.19c0.7-0.1,1.42-0.29,2.03-0.66c0.48-0.29,0.93-0.64,1.28-1.08c0.29-0.36,0.53-0.76,0.68-1.2
		c0.1-0.31,0.2-0.66,0.2-0.99c0.02-0.62-0.18-1.2-0.56-1.69c-0.38-0.49-0.86-0.89-1.38-1.24c-0.58-0.39-1.19-0.73-1.81-1.04
		c-0.66-0.33-1.33-0.64-1.99-0.95l-0.01,0l-0.01-0.01c-0.65-0.26-1.28-0.54-1.91-0.83c-0.49-0.23-0.96-0.52-1.37-0.88
		c-0.39-0.35-0.7-0.78-0.92-1.26c-0.3-0.63-0.43-1.38-0.49-2.08c-0.03-0.54,0.1-1.14,0.24-1.66c0.2-0.71,0.56-1.35,1.02-1.93
		c0.54-0.67,1.25-1.17,2.01-1.53C136.75,103.77,137.91,103.68,138.98,103.73L138.98,103.73z M8.81,118.95h7.45l-3.63-12.99
		L8.81,118.95L8.81,118.95z M95.81,118.95h7.45l-3.62-12.99L95.81,118.95z"/>
</g>
</svg>
