<?xml version="1.0" encoding="utf-8"?>
<!-- Generator: Adobe Illustrator 23.0.0, SVG Export Plug-In . SVG Version: 6.00 Build 0)  -->
<svg version="1.1" id="Layer_1" xmlns="http://www.w3.org/2000/svg" xmlns:xlink="http://www.w3.org/1999/xlink" x="0px" y="0px"
	 viewBox="0 0 30 30" style="enable-background:new 0 0 30 30;" xml:space="preserve">
<style type="text/css">
	.st0{fill:#102542;}
</style>
<g>
	<path class="st0" d="M27.3,14.47c-0.07,0.45-0.12,0.9-0.22,1.34c-0.71,3.07-2.56,5.24-5.32,6.67c-1.91,0.99-3.97,1.38-6.11,1.45
		c-1.54,0.05-3.07-0.1-4.57-0.47c-0.09-0.02-0.23,0.02-0.29,0.08c-1.33,1.26-2.91,1.88-4.74,1.84c-0.48-0.01-0.95,0-1.43,0
		c-0.01-0.02-0.02-0.04-0.03-0.06c0.25-0.24,0.49-0.49,0.75-0.73c0.55-0.53,1.07-1.08,1.35-1.81c0.1-0.28,0.17-0.58,0.25-0.87
		c0.05-0.16-0.01-0.26-0.15-0.35c-1.13-0.77-2.09-1.71-2.82-2.88c-0.68-1.1-1.09-2.29-1.22-3.58c-0.01-0.07-0.03-0.14-0.04-0.21
		c0-0.42,0-0.83,0-1.25c0.01-0.07,0.04-0.14,0.04-0.21c0.14-1.47,0.6-2.83,1.39-4.07c2.21-3.46,5.47-5.14,9.46-5.57
		c1.29-0.14,2.57-0.08,3.85,0.09c1.9,0.26,3.7,0.82,5.31,1.87c2.31,1.51,3.81,3.58,4.36,6.31c0.07,0.36,0.11,0.72,0.17,1.08
		C27.3,13.61,27.3,14.04,27.3,14.47z M7.87,23.68c0.1-0.03,0.15-0.04,0.19-0.06c0.9-0.34,1.62-0.92,2.22-1.66
		c0.09-0.12,0.18-0.17,0.34-0.12c2.4,0.75,4.84,0.86,7.31,0.41c1.96-0.35,3.76-1.08,5.22-2.45c2.35-2.21,3.22-4.92,2.4-8.07
		c-0.64-2.45-2.27-4.14-4.5-5.27c-1.51-0.76-3.13-1.11-4.8-1.23c-2.01-0.14-3.98,0.04-5.87,0.79c-2.53,1.01-4.47,2.67-5.57,5.2
		c-1.04,2.4-0.93,4.75,0.55,6.97c0.74,1.11,1.74,1.93,2.88,2.6c0.15,0.09,0.2,0.18,0.2,0.36C8.43,22.01,8.26,22.84,7.87,23.68z"/>
</g>
<path class="st0" d="M14.39,12.28c-0.01,0.72-0.17,1.38-0.62,1.95c-0.66,0.82-1.69,0.84-2.36,0.03c-0.52-0.62-0.71-1.36-0.66-2.16
	c0.03-0.53,0.15-1.04,0.43-1.49c0.32-0.51,0.77-0.84,1.4-0.83c0.5,0.01,0.9,0.25,1.2,0.64C14.22,10.96,14.36,11.61,14.39,12.28z"/>
<path class="st0" d="M15.83,12.32c0.01-0.53,0.1-1.06,0.35-1.55c0.24-0.45,0.57-0.81,1.08-0.94c0.63-0.17,1.14,0.05,1.56,0.52
	c0.36,0.4,0.52,0.89,0.61,1.41c0.13,0.81,0.03,1.59-0.43,2.29c-0.34,0.52-0.8,0.86-1.46,0.81c-0.52-0.04-0.89-0.35-1.18-0.77
	C15.99,13.56,15.84,12.97,15.83,12.32z"/>
<path class="st0" d="M9.56,14.88c0,0.44-0.04,0.78-0.18,1.11c-0.38,0.89-1.33,1.1-2.04,0.44c-0.49-0.45-0.73-1.03-0.86-1.66
	c-0.11-0.54-0.11-1.08,0.09-1.6c0.35-0.9,1.27-1.13,2-0.52c0.56,0.47,0.84,1.11,0.95,1.82C9.54,14.64,9.55,14.8,9.56,14.88z"/>
<path class="st0" d="M23.85,14.28c-0.02,0.66-0.21,1.4-0.75,2.01c-0.77,0.86-1.88,0.64-2.26-0.44c-0.37-1.04,0-2.49,0.8-3.19
	c0.69-0.59,1.53-0.43,1.95,0.38C23.75,13.35,23.84,13.73,23.85,14.28z"/>
</svg>
