<?xml version="1.0" encoding="utf-8"?>
<!-- Generator: Adobe Illustrator 23.0.0, SVG Export Plug-In . SVG Version: 6.00 Build 0)  -->
<svg version="1.1" id="Layer_1" xmlns="http://www.w3.org/2000/svg" xmlns:xlink="http://www.w3.org/1999/xlink" x="0px" y="0px"
	 viewBox="0 0 18 18" style="enable-background:new 0 0 18 18;" xml:space="preserve">
<style type="text/css">
	.st0{fill:#F87060;}
</style>
<g>
	<path class="st0" d="M16.74,6.07c-0.02,0.11-0.05,0.21-0.07,0.32c-0.28,1.12-1.21,1.9-2.39,1.96c-0.77,0.04-1.55,0.03-2.32-0.01
		c-1.18-0.07-2.21-1.1-2.28-2.28c-0.05-0.82-0.05-1.64,0-2.46c0.07-1.16,1.01-2.13,2.16-2.3c0.03,0,0.07-0.02,0.1-0.03
		c0.84,0,1.67,0,2.51,0c0.03,0.01,0.06,0.02,0.08,0.03c1.03,0.15,1.86,0.89,2.12,1.89c0.03,0.13,0.06,0.25,0.09,0.38
		C16.74,4.4,16.74,5.23,16.74,6.07z M15.44,4.81c0-0.32,0.01-0.64,0-0.97c-0.01-0.74-0.55-1.28-1.29-1.29
		c-0.64-0.01-1.28-0.01-1.92,0c-0.75,0.01-1.29,0.56-1.3,1.32c0,0.62,0,1.24,0,1.86c0,0.78,0.56,1.33,1.33,1.33
		c0.61,0,1.23,0,1.84,0c0.78,0,1.33-0.55,1.33-1.33C15.45,5.43,15.44,5.12,15.44,4.81z"/>
	<path class="st0" d="M6.07,1.26C6.18,1.29,6.29,1.31,6.4,1.34c1.11,0.28,1.89,1.21,1.94,2.39C8.38,4.5,8.38,5.28,8.33,6.05
		c-0.07,1.17-1.1,2.21-2.28,2.28c-0.82,0.05-1.64,0.05-2.46,0c-1.15-0.06-2.12-1-2.3-2.15C1.29,6.14,1.27,6.11,1.26,6.07
		c0-0.84,0-1.67,0-2.51c0.01-0.03,0.02-0.06,0.03-0.08c0.15-1.03,0.89-1.86,1.89-2.13c0.13-0.03,0.25-0.06,0.38-0.09
		C4.4,1.26,5.23,1.26,6.07,1.26z M2.56,4.81c0,0.31,0,0.61,0,0.92C2.56,6.52,3.11,7.06,3.9,7.07c0.61,0,1.22,0,1.83,0
		c0.79,0,1.34-0.55,1.34-1.34c0-0.61,0-1.22,0-1.83c0-0.79-0.54-1.34-1.34-1.34c-0.61,0-1.23,0-1.84,0c-0.79,0-1.32,0.54-1.33,1.33
		C2.55,4.19,2.56,4.5,2.56,4.81z"/>
	<path class="st0" d="M11.93,16.74c-0.15-0.04-0.3-0.07-0.45-0.11c-1.03-0.32-1.75-1.18-1.82-2.25c-0.05-0.78-0.06-1.56,0-2.34
		c0.09-1.34,1.09-2.31,2.44-2.38c0.77-0.04,1.54-0.03,2.31,0.01c1.16,0.07,2.12,1,2.3,2.15c0.01,0.04,0.02,0.07,0.03,0.11
		c0,0.84,0,1.67,0,2.51c-0.01,0.02-0.02,0.04-0.03,0.07c-0.16,1-0.72,1.69-1.65,2.06c-0.2,0.08-0.41,0.11-0.62,0.17
		C13.6,16.74,12.77,16.74,11.93,16.74z M15.44,13.19c0-0.31,0-0.61,0-0.92c-0.01-0.79-0.55-1.33-1.34-1.34c-0.61,0-1.22,0-1.83,0
		c-0.79,0-1.34,0.55-1.34,1.34c0,0.61,0,1.22,0,1.83c0,0.79,0.55,1.34,1.34,1.34c0.61,0,1.23,0,1.84,0c0.79,0,1.32-0.54,1.33-1.33
		C15.45,13.81,15.44,13.5,15.44,13.19z"/>
	<path class="st0" d="M1.26,11.93c0.03-0.11,0.05-0.22,0.08-0.33c0.29-1.12,1.24-1.91,2.42-1.95c0.76-0.02,1.53-0.03,2.29,0.02
		c1.18,0.07,2.21,1.1,2.28,2.28c0.05,0.81,0.05,1.63,0,2.44c-0.07,1.19-1,2.14-2.18,2.32c-0.03,0-0.05,0.02-0.08,0.03
		c-0.84,0-1.67,0-2.51,0c-0.03-0.01-0.05-0.02-0.08-0.03c-1.05-0.15-1.9-0.92-2.14-1.95c-0.03-0.11-0.05-0.21-0.07-0.32
		C1.26,13.6,1.26,12.77,1.26,11.93z M4.8,15.44c0.32,0,0.63,0,0.95,0c0.76-0.01,1.31-0.56,1.31-1.32c0-0.62,0-1.24,0-1.86
		c0-0.78-0.56-1.33-1.33-1.33c-0.61,0-1.23,0-1.84,0c-0.77,0-1.33,0.54-1.33,1.32c-0.01,0.62,0,1.25,0,1.87
		c0.01,0.78,0.55,1.31,1.32,1.32C4.19,15.45,4.5,15.44,4.8,15.44z"/>
</g>
</svg>
