<?xml version="1.0" encoding="utf-8"?>
<!-- Generator: Adobe Illustrator 23.0.0, SVG Export Plug-In . SVG Version: 6.00 Build 0)  -->
<svg version="1.1" id="Layer_1" xmlns="http://www.w3.org/2000/svg" xmlns:xlink="http://www.w3.org/1999/xlink" x="0px" y="0px"
	 viewBox="0 0 18 18" style="enable-background:new 0 0 18 18;" xml:space="preserve">
<g>
	<path d="M9.01,17.34c-4.58,0.01-8.34-3.73-8.35-8.31c-0.01-4.63,3.7-8.36,8.32-8.38c4.61-0.02,8.35,3.71,8.36,8.33
		C17.36,13.58,13.61,17.33,9.01,17.34z M14.04,14.81c1.99-1.61,3.36-4.83,2.33-8.14c-1.03-3.29-4.12-5.48-7.65-5.39
		C5.32,1.37,2.34,3.8,1.51,7.13c-0.8,3.22,0.64,6.25,2.46,7.67c0.13-2.22,1.24-3.72,3.32-4.5C5.21,9.04,5.19,6.43,6.5,5.04
		c1.32-1.4,3.53-1.46,4.89-0.11c0.68,0.67,1.02,1.49,1,2.45c-0.02,1.27-0.63,2.22-1.69,2.91C12.8,11.08,13.91,12.58,14.04,14.81z
		 M8.95,16.72c1.46-0.02,2.76-0.36,3.97-1.07c0.49-0.29,0.49-0.29,0.48-0.84c-0.04-1.75-1.06-3.22-2.65-3.82
		c-0.71-0.27-1.44-0.26-2.18-0.24c-1.04,0.02-1.94,0.4-2.69,1.11c-0.94,0.89-1.31,2-1.27,3.28c0.01,0.15,0.05,0.24,0.18,0.32
		C6.07,16.29,7.48,16.7,8.95,16.72z M6.23,7.35c-0.01,1.51,1.24,2.76,2.76,2.77c1.53,0,2.78-1.23,2.78-2.75
		c0-1.54-1.23-2.78-2.76-2.78C7.47,4.58,6.23,5.81,6.23,7.35z"/>
</g>
</svg>
