<?xml version="1.0" encoding="utf-8"?>
<!-- Generator: Adobe Illustrator 23.0.0, SVG Export Plug-In . SVG Version: 6.00 Build 0)  -->
<svg version="1.1" id="Layer_1" xmlns="http://www.w3.org/2000/svg" xmlns:xlink="http://www.w3.org/1999/xlink" x="0px" y="0px"
	 viewBox="0 0 40 40" style="enable-background:new 0 0 40 40;" xml:space="preserve">
<style type="text/css">
	.Drop_x0020_Shadow{fill:none;}
	.Round_x0020_Corners_x0020_2_x0020_pt{fill:#FFFFFF;stroke:#000000;stroke-miterlimit:10;}
	.Live_x0020_Reflect_x0020_X{fill:none;}
	.Bevel_x0020_Soft{fill:url(#SVGID_1_);}
	.Dusk{fill:#FFFFFF;}
	.Foliage_GS{fill:#FFDD00;}
	.Pompadour_GS{fill-rule:evenodd;clip-rule:evenodd;fill:#44ADE2;}
	.st0{fill:#F37163;}
	.st1{font-family:'Baloo';}
	.st2{font-size:8.2044px;}
</style>
<linearGradient id="SVGID_1_" gradientUnits="userSpaceOnUse" x1="0" y1="0" x2="0.7071" y2="0.7071">
	<stop  offset="0" style="stop-color:#DEDFE3"/>
	<stop  offset="0.1738" style="stop-color:#D8D9DD"/>
	<stop  offset="0.352" style="stop-color:#C9CACD"/>
	<stop  offset="0.5323" style="stop-color:#B4B5B8"/>
	<stop  offset="0.7139" style="stop-color:#989A9C"/>
	<stop  offset="0.8949" style="stop-color:#797C7E"/>
	<stop  offset="1" style="stop-color:#656B6C"/>
</linearGradient>
<g>
	<g>
		<path class="st0" d="M29.51,28.15c-0.04-0.86-0.32-1.5-0.83-1.91c-0.43-0.34-0.91-0.42-1.22-0.43c-0.42-0.79-0.01-1.93,0.53-3.47
			c0.36-1.03,0.77-2.19,1.02-3.52c0.61-3.22-1.17-6.4-1.7-7.26c0.23-0.58,0.61-1.73,0.3-2.28c-0.08-0.14-0.22-0.24-0.38-0.27
			C27.07,9,26.91,9.04,26.79,9.15c-0.5,0.43-1.09,0.72-1.34,0.84c-0.35-0.07-1.1-0.14-1.9,0.3c-0.71,0.39-1.66,0.57-1.85,0.6
			c-0.24,0.04-0.42,0.23-0.47,0.46c-0.24,1.23-0.01,2.72,1.28,3.4l-0.02,0.1c-0.09,0.36-0.58,1.38-3.24,2.99
			c-1.17,0.71-2.07,1.83-2.67,3.3c0.21-1.22,0.56-2.43,0.86-3.5c0.43-1.5,0.74-2.58,0.56-3.25c-0.25-0.89-1.07-1.38-2.09-1.26
			c-1.23,0.14-2.51,1.15-2.58,2.81c-0.01,0.26,0.19,0.49,0.46,0.5c0.26,0.01,0.49-0.19,0.5-0.46c0.04-1.12,0.9-1.8,1.73-1.9
			c0.26-0.03,0.89-0.04,1.06,0.57c0.11,0.41-0.23,1.59-0.55,2.73c-0.85,2.95-2.13,7.4,0.48,10.08c0.03,0.03,0.07,0.06,0.11,0.08
			c0.72,0.65,1.67,1.02,2.65,1.02h4.17l0.09-0.37c0.02-0.09,0.19-0.87-0.29-1.58c-0.21-0.32-0.52-0.56-0.91-0.72
			c0.76-1.08,2.14-3.4,1.49-5.07c-0.34-0.87-1.15-1.42-2.41-1.62c-0.26-0.04-0.51,0.14-0.55,0.4c-0.04,0.26,0.14,0.51,0.4,0.55
			c0.91,0.15,1.46,0.48,1.67,1.02c0.53,1.37-1.1,3.86-1.77,4.71l-0.52,0.65l0.82,0.12c0.47,0.07,0.8,0.24,0.98,0.5
			c0.1,0.15,0.15,0.32,0.16,0.46h-3.34c-0.87,0-1.69-0.37-2.26-1.02c-0.57-0.64-0.83-1.5-0.72-2.35c0.24-1.86,0.94-4.34,2.97-5.57
			c2.18-1.32,3.42-2.53,3.68-3.58c0.13-0.52-0.03-0.83-0.08-0.91l-0.08-0.14l-0.15-0.06c-1.05-0.42-1.05-1.63-0.99-2.2
			c0.44-0.09,1.23-0.29,1.88-0.66c0.68-0.38,1.3-0.19,1.33-0.18L25.5,11l0.16-0.06c0.03-0.01,0.49-0.2,1.03-0.54
			c-0.06,0.27-0.17,0.61-0.36,1.04l-0.1,0.24l0.15,0.22c0.02,0.03,2.31,3.46,1.69,6.76c-0.24,1.25-0.63,2.38-0.99,3.37
			c-0.64,1.81-1.19,3.37-0.25,4.57L27,26.83l0.28-0.05c0,0,0.46-0.07,0.81,0.21c0.19,0.15,0.32,0.39,0.39,0.7h-2.16
			c-0.26,0-0.48,0.21-0.48,0.48c0,0.26,0.21,0.48,0.48,0.48h3.21L29.51,28.15z"/>
		<path class="st0" d="M13.91,27.71H11.5c0.31-0.95,1.42-1.6,1.44-1.61l0.16-0.09l0.06-0.18c0.03-0.1,0.76-2.39-0.42-5.84
			c-0.02-0.06-1.97-6.2,0.2-10.36c0.38,0.43,0.9,0.7,1.56,0.77c1.22,0.14,2.15-0.36,2.56-1.37c0.64-1.61-0.18-4.05-1.75-5.23
			c-0.21-0.16-0.51-0.12-0.67,0.1c-0.16,0.21-0.12,0.51,0.1,0.67c1.33,1,1.87,3.03,1.43,4.11c-0.24,0.61-0.77,0.87-1.56,0.77
			c-0.59-0.07-0.96-0.33-1.18-0.82c-0.65-1.49,0.43-4.44,1.08-5.33c0.58-0.8,2.56-1.25,3.67-1.01c0.37,0.08,0.46,0.19,0.47,0.22
			c0.31,1.4,1.49,1.65,1.54,1.66l0.05,0.01h2.07c0.19,0,0.34,0.15,0.34,0.34v0.26c0,0.97-2.05,3.06-3.37,3.17
			c-0.18,0.01-0.34,0.1-0.45,0.24c-0.11,0.14-0.15,0.32-0.12,0.5c0.05,0.29,0.37,1.44,0.93,2.38c0.09,0.15,0.25,0.23,0.41,0.23
			c0.08,0,0.17-0.02,0.24-0.07c0.23-0.13,0.3-0.43,0.17-0.65c-0.34-0.57-0.6-1.3-0.73-1.74c1.71-0.41,3.88-2.61,3.88-4.06V4.53
			c0-0.71-0.58-1.29-1.29-1.29h-1.96C20.21,3.19,19.73,3,19.57,2.31c-0.07-0.33-0.34-0.77-1.21-0.95c-1.43-0.3-3.82,0.26-4.64,1.39
			c-0.78,1.07-1.85,3.99-1.31,5.9c-0.02,0.02-0.04,0.05-0.06,0.08c-2.76,4.53-0.62,11.29-0.52,11.58c0.91,2.64,0.58,4.54,0.46,5.08
			c-0.49,0.32-1.82,1.34-1.82,2.81v0.48h3.44c0.26,0,0.48-0.21,0.48-0.48C14.38,27.93,14.17,27.71,13.91,27.71z"/>
	</g>
	<text transform="matrix(1 0 0 1 6.1143 36.4186)" class="st0 st1 st2">myPetz</text>
</g>
</svg>
