<?xml version="1.0" encoding="utf-8"?>
<!-- Generator: Adobe Illustrator 23.0.0, SVG Export Plug-In . SVG Version: 6.00 Build 0)  -->
<svg version="1.1" id="Layer_1" xmlns="http://www.w3.org/2000/svg" xmlns:xlink="http://www.w3.org/1999/xlink" x="0px" y="0px"
	 viewBox="0 0 30 30" style="enable-background:new 0 0 30 30;" xml:space="preserve">
<style type="text/css">
	.st0{fill:#F87060;}
</style>
<g>
	<path class="st0" d="M14.99,14.11c1.33,0.03,2.51,0.45,3.49,1.35c1.5,1.39,2.99,2.8,4.45,4.22c1.06,1.02,1.33,2.28,0.89,3.66
		c-0.44,1.39-1.38,2.29-2.84,2.57c-0.67,0.13-1.33-0.03-1.98-0.18c-0.91-0.21-1.81-0.46-2.73-0.62c-1.34-0.24-2.66-0.02-3.96,0.34
		c-0.79,0.22-1.6,0.4-2.42,0.48c-1.55,0.16-2.91-0.7-3.56-2.15c-0.65-1.45-0.38-3.03,0.74-4.1c1.48-1.42,2.97-2.84,4.48-4.23
		C12.51,14.54,13.68,14.13,14.99,14.11z M15.08,15.01c-1.13,0-2.07,0.31-2.84,1c-1.56,1.43-3.12,2.87-4.62,4.35
		c-0.81,0.8-0.99,1.83-0.58,2.9c0.41,1.08,1.23,1.69,2.39,1.78c0.84,0.07,1.65-0.16,2.46-0.37c1.11-0.29,2.22-0.57,3.38-0.55
		c1.25,0.02,2.44,0.36,3.64,0.65c0.49,0.12,0.99,0.25,1.48,0.26c1.14,0.02,2.12-0.68,2.53-1.74c0.43-1.13,0.23-2.17-0.63-3.01
		c-1.45-1.41-2.93-2.8-4.41-4.18C17.07,15.37,16.1,15.02,15.08,15.01z"/>
	<path class="st0" d="M14.18,8.03c-0.03,1.19-0.31,2.27-1.07,3.19c-1.1,1.35-2.81,1.36-3.92,0.01c-0.86-1.05-1.14-2.28-1.05-3.6
		C8.2,6.8,8.39,5.99,8.84,5.26c0.55-0.89,1.29-1.47,2.39-1.45c0.84,0.02,1.48,0.43,1.98,1.08C13.93,5.82,14.15,6.91,14.18,8.03z
		 M13.29,8c-0.02-0.75-0.13-1.48-0.49-2.15c-0.35-0.66-0.84-1.17-1.63-1.18c-0.79-0.01-1.32,0.49-1.64,1.16
		c-0.7,1.44-0.69,2.91-0.01,4.34c0.32,0.67,0.84,1.17,1.63,1.17c0.79,0,1.28-0.51,1.64-1.17C13.16,9.5,13.27,8.76,13.29,8z"/>
	<path class="st0" d="M15.82,7.83c0.04-0.93,0.25-2,0.94-2.91c1.12-1.48,3.01-1.5,4.14-0.03c0.82,1.06,1.04,2.31,0.95,3.61
		c-0.07,1.02-0.39,1.95-1.06,2.75c-1.12,1.34-2.82,1.33-3.92-0.03c-0.23-0.29-0.43-0.62-0.59-0.95C15.95,9.56,15.82,8.8,15.82,7.83z
		 M20.99,8.04c-0.04-0.34-0.05-0.68-0.11-1.01c-0.14-0.74-0.4-1.43-0.99-1.94c-0.64-0.55-1.41-0.57-2.05-0.02
		c-0.25,0.22-0.48,0.49-0.63,0.78c-0.51,0.98-0.6,2.03-0.41,3.1c0.14,0.78,0.41,1.5,1.05,2.03c0.57,0.47,1.26,0.53,1.85,0.08
		c0.32-0.24,0.59-0.58,0.79-0.92C20.86,9.5,20.96,8.78,20.99,8.04z"/>
	<path class="st0" d="M7.46,13.82c-0.01,0.71-0.09,1.26-0.31,1.79c-0.65,1.52-2.26,1.85-3.44,0.7c-0.78-0.76-1.17-1.72-1.36-2.76
		c-0.17-0.91-0.16-1.81,0.21-2.67c0.61-1.44,2.12-1.81,3.3-0.79c0.93,0.8,1.38,1.87,1.55,3.07C7.44,13.42,7.45,13.69,7.46,13.82z
		 M6.6,14.16c-0.05-1.32-0.34-2.3-1.02-3.13c-0.35-0.42-0.8-0.72-1.37-0.6c-0.59,0.13-0.85,0.63-0.99,1.18
		c-0.19,0.77-0.12,1.53,0.09,2.28c0.21,0.73,0.51,1.42,1.13,1.91c0.7,0.55,1.47,0.39,1.83-0.42C6.47,14.92,6.54,14.41,6.6,14.16z"/>
	<path class="st0" d="M22.5,13.96c0.06-1.31,0.39-2.51,1.27-3.5c0.25-0.28,0.56-0.53,0.89-0.71c0.87-0.47,1.83-0.24,2.42,0.55
		c0.5,0.66,0.68,1.42,0.67,2.22c-0.01,1.34-0.36,2.58-1.27,3.6c-0.86,0.97-2.07,1.13-2.94,0.44c-0.49-0.39-0.77-0.93-0.9-1.53
		C22.58,14.67,22.55,14.32,22.5,13.96z M23.41,13.93c0.01,0.61,0.08,1.19,0.44,1.69c0.36,0.5,0.93,0.65,1.45,0.33
		c0.3-0.19,0.58-0.45,0.78-0.75c0.62-0.9,0.86-1.92,0.75-3c-0.04-0.41-0.15-0.83-0.34-1.2c-0.29-0.59-0.9-0.75-1.47-0.43
		c-0.29,0.17-0.57,0.41-0.78,0.68C23.65,12.03,23.44,12.97,23.41,13.93z"/>
</g>
</svg>
