<?xml version="1.0" encoding="utf-8"?>
<!-- Generator: Adobe Illustrator 23.0.0, SVG Export Plug-In . SVG Version: 6.00 Build 0)  -->
<svg version="1.1" id="Layer_1" xmlns="http://www.w3.org/2000/svg" xmlns:xlink="http://www.w3.org/1999/xlink" x="0px" y="0px"
	 viewBox="0 0 18 18" style="enable-background:new 0 0 18 18;" xml:space="preserve">
<style type="text/css">
	.st0{fill:#F87060;}
</style>
<g>
	<path class="st0" d="M5.1,0.38c1.34,0,2.68,0,4.02,0C9.16,0.39,9.2,0.4,9.24,0.41c1.13,0.13,2.11,0.57,2.93,1.36
		c0.9,0.88,1.8,1.77,2.67,2.67c0.91,0.94,1.39,2.07,1.4,3.37c0.02,2.09,0.02,4.19,0,6.28c-0.02,2.01-1.61,3.56-3.62,3.57
		c-2.39,0-4.77,0.01-7.16,0c-0.31,0-0.63-0.04-0.93-0.12c-1.61-0.42-2.68-1.83-2.68-3.52c-0.01-1.86,0-3.72,0-5.59
		c0-1.53-0.04-3.06,0.01-4.59C1.91,2.33,2.7,1.26,4.08,0.66C4.4,0.52,4.76,0.47,5.1,0.38z M9.05,1.85C8.9,1.84,8.77,1.82,8.64,1.82
		c-1.05,0-2.09,0-3.14,0c-1.28,0-2.21,0.94-2.21,2.22c0,3.32,0,6.64,0,9.96c0,1.28,0.94,2.22,2.22,2.22c2.37,0,4.74,0,7.11,0
		c1.27,0,2.2-0.94,2.21-2.21c0-2,0-4.01,0-6.01c0-0.14-0.02-0.27-0.03-0.42c-0.09,0-0.16,0-0.22,0c-1.1,0-2.19,0-3.29,0
		c-1.28,0-2.21-0.94-2.21-2.22c0-1.1,0-2.21,0-3.31C9.05,1.99,9.05,1.93,9.05,1.85z M10.54,2.31c-0.02,0.01-0.03,0.03-0.05,0.04
		c0,0.05,0,0.1,0,0.15c0,0.94,0,1.88,0,2.82c0,0.54,0.28,0.82,0.82,0.82c0.93,0,1.87,0,2.8,0c0.05,0,0.11,0,0.16,0
		c0.01-0.02,0.03-0.03,0.04-0.05c-0.2-0.25-0.38-0.51-0.6-0.74c-0.81-0.83-1.64-1.66-2.47-2.47C11.04,2.67,10.78,2.5,10.54,2.31z"/>
	<path class="st0" d="M8.33,12.62c-0.47,0-0.91,0.01-1.36,0c-0.13,0-0.27-0.02-0.39-0.07c-0.31-0.13-0.46-0.46-0.4-0.8
		c0.06-0.32,0.35-0.56,0.69-0.57c0.42-0.01,0.84,0,1.27,0c0.06,0,0.12,0,0.2,0c0-0.24,0-0.45,0-0.67c0-0.28-0.01-0.55,0.01-0.83
		c0.02-0.37,0.34-0.66,0.72-0.66c0.37,0,0.69,0.29,0.7,0.66c0.01,0.43,0.01,0.87,0.01,1.3c0,0.06,0,0.12,0,0.2c0.15,0,0.29,0,0.43,0
		c0.34,0,0.69-0.01,1.03,0c0.37,0.01,0.67,0.29,0.7,0.65c0.03,0.39-0.21,0.72-0.6,0.77c-0.22,0.03-0.45,0.02-0.67,0.02
		c-0.28,0-0.55,0-0.83,0c-0.01,0-0.02,0.01-0.06,0.02c0,0.05,0,0.11,0,0.17c0,0.4,0,0.81,0,1.21c0,0.44-0.31,0.75-0.72,0.76
		c-0.41,0-0.71-0.32-0.72-0.75c0-0.4,0-0.8,0-1.2C8.33,12.77,8.33,12.71,8.33,12.62z"/>
</g>
</svg>
