<?xml version="1.0" encoding="utf-8"?>
<!-- Generator: Adobe Illustrator 23.0.0, SVG Export Plug-In . SVG Version: 6.00 Build 0)  -->
<svg version="1.1" id="Layer_1" xmlns="http://www.w3.org/2000/svg" xmlns:xlink="http://www.w3.org/1999/xlink" x="0px" y="0px"
	 viewBox="0 0 18 18" style="enable-background:new 0 0 18 18;" xml:space="preserve">
<style type="text/css">
	.st0{fill:#F87060;}
</style>
<g>
	<path class="st0" d="M8.56,0.94c0.33,0,0.65,0,0.98,0c0.27,0.04,0.54,0.06,0.81,0.11c1.54,0.26,2.89,0.9,4.05,1.94
		c1.39,1.25,2.26,2.8,2.59,4.65c0.05,0.29,0.08,0.59,0.12,0.89c0,0.33,0,0.65,0,0.98c-0.01,0.05-0.02,0.1-0.03,0.15
		c-0.06,0.42-0.1,0.84-0.2,1.24c-1.15,4.85-6.39,7.51-10.97,5.59c-3.5-1.47-5.49-5.1-4.85-8.86C1.62,4.38,4.2,1.74,7.44,1.11
		C7.81,1.03,8.19,1,8.56,0.94z M2.3,9.02c0,3.73,3,6.73,6.72,6.74c3.73,0.01,6.76-3.02,6.75-6.75c-0.01-3.72-3.02-6.72-6.74-6.72
		C5.31,2.3,2.3,5.31,2.3,9.02z"/>
	<path class="st0" d="M9.01,9.97c-0.07,0.08-0.13,0.17-0.19,0.24c-0.5,0.5-0.99,1-1.5,1.5c-0.39,0.38-0.99,0.23-1.14-0.27
		c-0.08-0.27,0-0.5,0.2-0.69c0.53-0.52,1.05-1.05,1.57-1.57c0.04-0.04,0.08-0.08,0.12-0.13C8.03,8.98,7.99,8.94,7.95,8.9
		C7.42,8.37,6.89,7.85,6.37,7.31C5.99,6.93,6.13,6.32,6.63,6.18c0.27-0.08,0.5,0,0.7,0.2C7.86,6.9,8.38,7.42,8.9,7.94
		c0.04,0.04,0.08,0.08,0.13,0.13c0.05-0.04,0.09-0.08,0.13-0.12c0.53-0.53,1.06-1.06,1.6-1.6c0.21-0.2,0.45-0.27,0.72-0.17
		c0.27,0.1,0.41,0.3,0.44,0.58c0.02,0.22-0.07,0.41-0.23,0.56c-0.52,0.52-1.04,1.04-1.56,1.56c-0.04,0.04-0.09,0.07-0.15,0.12
		c0.06,0.06,0.09,0.1,0.13,0.14c0.53,0.53,1.07,1.06,1.59,1.6c0.38,0.39,0.23,0.99-0.28,1.14c-0.27,0.07-0.5,0-0.69-0.2
		c-0.52-0.53-1.05-1.05-1.57-1.57C9.12,10.07,9.08,10.04,9.01,9.97z"/>
</g>
</svg>
