<?xml version="1.0" encoding="utf-8"?>
<!-- Generator: Adobe Illustrator 23.0.0, SVG Export Plug-In . SVG Version: 6.00 Build 0)  -->
<svg version="1.1" id="Layer_1" xmlns="http://www.w3.org/2000/svg" xmlns:xlink="http://www.w3.org/1999/xlink" x="0px" y="0px"
	 viewBox="0 0 18 18" style="enable-background:new 0 0 18 18;" xml:space="preserve">
<style type="text/css">
	.st0{fill:#F87060;}
</style>
<g>
	<path class="st0" d="M1.58,0.75C1.99,0.9,2.12,1.2,2.12,1.62c-0.01,4,0,8.01-0.01,12.01c0,0.8,0.33,1.42,1.02,1.83
		c0.29,0.18,0.6,0.27,0.94,0.28c0.09,0,0.17,0,0.26,0c3.97,0,7.95,0,11.92,0c0.42,0,0.72,0.13,0.87,0.54c0,0.1,0,0.19,0,0.29
		c-0.09,0.27-0.27,0.45-0.54,0.54c-4.24,0-8.48,0-12.72,0c-0.04-0.01-0.07-0.02-0.11-0.03c-1.38-0.17-2.5-1.14-2.87-2.49
		c-0.05-0.18-0.08-0.37-0.12-0.56c0-4.25,0-8.5,0-12.75c0.09-0.27,0.27-0.45,0.54-0.54C1.39,0.75,1.49,0.75,1.58,0.75z"/>
	<path class="st0" d="M17.11,1.55c-0.07,0.23-0.22,0.39-0.38,0.55c-1.18,1.18-2.36,2.36-3.54,3.53c-0.92,0.92-2.15,0.92-3.06,0
		c-0.45-0.45-0.9-0.9-1.34-1.34c-0.33-0.33-0.74-0.34-1.07,0C6.93,5.08,6.15,5.86,5.37,6.64C5.19,6.83,4.98,6.92,4.72,6.87
		C4.46,6.82,4.28,6.67,4.2,6.41c-0.08-0.26-0.03-0.5,0.17-0.69c0.29-0.3,0.59-0.59,0.88-0.88c0.51-0.51,1.02-1.02,1.53-1.53
		c0.85-0.85,2.1-0.85,2.96-0.01c0.47,0.46,0.93,0.93,1.39,1.39c0.35,0.35,0.73,0.35,1.09,0c1.19-1.19,2.38-2.38,3.57-3.57
		c0.16-0.16,0.32-0.31,0.54-0.37c0.06,0,0.13,0,0.19,0c0.33,0.08,0.53,0.28,0.61,0.61C17.11,1.42,17.11,1.49,17.11,1.55z"/>
	<path class="st0" d="M15.75,10.3c0,1.12,0,2.25,0,3.37c0,0.39-0.23,0.66-0.6,0.71c-0.36,0.05-0.71-0.22-0.75-0.58
		c-0.01-0.06-0.01-0.12-0.01-0.18c0-2.22,0-4.44,0-6.66c0-0.09,0-0.18,0.03-0.27c0.09-0.33,0.41-0.53,0.76-0.49
		c0.32,0.04,0.57,0.32,0.57,0.67C15.75,8.02,15.75,9.16,15.75,10.3C15.75,10.3,15.75,10.3,15.75,10.3z"/>
	<path class="st0" d="M8.93,10.64c0,1.02,0,2.03,0,3.05c0,0.31-0.18,0.56-0.46,0.66c-0.27,0.09-0.58,0.02-0.74-0.22
		c-0.09-0.13-0.15-0.3-0.15-0.46C7.56,11.65,7.56,9.63,7.57,7.6c0-0.42,0.3-0.72,0.69-0.72C8.65,6.89,8.93,7.2,8.93,7.61
		C8.93,8.62,8.93,9.63,8.93,10.64z"/>
	<path class="st0" d="M5.52,11.31c0,0.8,0,1.6,0,2.39c0,0.28-0.13,0.49-0.39,0.61c-0.25,0.12-0.49,0.09-0.71-0.08
		c-0.18-0.14-0.26-0.33-0.26-0.55c0-0.45,0-0.89,0-1.34c0-1.13,0-2.26,0-3.38c0-0.52,0.47-0.85,0.93-0.66
		C5.36,8.4,5.52,8.65,5.52,8.97C5.52,9.75,5.52,10.53,5.52,11.31z"/>
	<path class="st0" d="M10.98,11.65c0-0.66,0-1.32,0-1.98c0-0.43,0.28-0.73,0.67-0.74c0.4,0,0.69,0.3,0.69,0.74c0,1.33,0,2.66,0,3.99
		c0,0.38-0.22,0.66-0.57,0.72c-0.31,0.05-0.63-0.12-0.74-0.42c-0.04-0.1-0.05-0.21-0.05-0.31C10.98,12.98,10.98,12.31,10.98,11.65z"
		/>
</g>
</svg>
