<?xml version="1.0" encoding="utf-8"?>
<!-- Generator: Adobe Illustrator 23.0.0, SVG Export Plug-In . SVG Version: 6.00 Build 0)  -->
<svg version="1.1" id="Layer_1" xmlns="http://www.w3.org/2000/svg" xmlns:xlink="http://www.w3.org/1999/xlink" x="0px" y="0px"
	 viewBox="0 0 18 18" style="enable-background:new 0 0 18 18;" xml:space="preserve">
<style type="text/css">
	.st0{fill:#FFFFFF;}
</style>
<g>
	<path class="st0" d="M0.97,9.36C1.05,9.23,1.11,9.09,1.2,8.97c1.13-1.42,2.44-2.63,4.02-3.54c1.04-0.6,2.15-1,3.35-1.08
		c1.1-0.07,2.16,0.14,3.18,0.58c1.45,0.62,2.69,1.55,3.8,2.66c0.46,0.46,0.88,0.97,1.3,1.46c0.24,0.28,0.23,0.51,0,0.8
		c-1.14,1.44-2.47,2.68-4.07,3.61c-1.26,0.72-2.6,1.16-4.07,1.1c-1.01-0.04-1.96-0.32-2.87-0.76c-1.9-0.93-3.42-2.32-4.72-3.97
		C1.06,9.75,1.02,9.64,0.97,9.54C0.97,9.48,0.97,9.42,0.97,9.36z M15.85,9.46c-0.33-0.35-0.62-0.68-0.92-1
		c-1.03-1.05-2.18-1.95-3.54-2.54C10.7,5.63,10,5.44,9.25,5.4C8.11,5.35,7.06,5.66,6.07,6.18C4.95,6.76,3.99,7.54,3.11,8.43
		C2.79,8.75,2.48,9.1,2.16,9.45c0.32,0.34,0.61,0.68,0.92,0.99c1.03,1.04,2.17,1.94,3.53,2.53c0.68,0.3,1.39,0.49,2.13,0.53
		c1.14,0.06,2.19-0.26,3.19-0.78c0.97-0.5,1.83-1.15,2.61-1.9C14.98,10.39,15.4,9.93,15.85,9.46z"/>
	<path class="st0" d="M12.17,9.45c0,1.76-1.43,3.18-3.18,3.17c-1.75-0.01-3.16-1.43-3.16-3.18c0-1.76,1.43-3.18,3.18-3.17
		C10.76,6.29,12.17,7.7,12.17,9.45z M11.11,9.45c0-1.17-0.95-2.11-2.11-2.11c-1.16,0-2.11,0.94-2.12,2.11
		c-0.01,1.17,0.96,2.13,2.12,2.12C10.18,11.56,11.12,10.61,11.11,9.45z"/>
</g>
</svg>
